# xmcd CD database file
# Copyright (C) 1993-1998 Ti Kan
# 
# Track frame offsets:
#     182
#     13952
#     27495
#     44277
#     58355
#     72507
#     89535
#     104560
#     121150
#     136265
#     150320
#     164250
# 
# Disc length: 2381 seconds
# 
# Revision: 1
# Processed by: cddbd v1.4b41PL1 Copyright (c) Steve Scherf et al.
# Submitted via: DiscPlay 4.0.4
# 
DISCID=a7094b0c
DTITLE=Tim Maia - Velho Camarada
DYEAR=1900
DGENRE=
TTITLE0=Ate Parece Que Foi Sonho Meu
TTITLE1=Chegou a Hora
TTITLE2=Labios de Mel
TTITLE3=Reencontro
TTITLE4=Eu So Quero Ver
TTITLE5=Pra Voce Voltar
TTITLE6=Velho Camarada
TTITLE7=Frente a Frente
TTITLE8=Foi Para o Seu Bem
TTITLE9=Vou com Gas
TTITLE10=Boogie Esperto
TTITLE11=Cancao para Cristina
EXTD=
EXTT0=
EXTT1=
EXTT2=
EXTT3=
EXTT4=
EXTT5=
EXTT6=
EXTT7=
EXTT8=
EXTT9=
EXTT10=
EXTT11=
PLAYORDER=
